<?xml version="1.0" encoding="UTF-8"?>
<svg height="128px" viewBox="0 0 128 128" width="128px" xmlns="http://www.w3.org/2000/svg" xmlns:xlink="http://www.w3.org/1999/xlink">
    <filter id="a" height="100%" width="100%" x="0%" y="0%">
        <feColorMatrix color-interpolation-filters="sRGB" values="0 0 0 0 1 0 0 0 0 1 0 0 0 0 1 0 0 0 1 0"/>
    </filter>
    <linearGradient id="b" gradientUnits="userSpaceOnUse" x1="7.9902805" x2="119.9902805" y1="115.997497" y2="115.997497">
        <stop offset="0" stop-color="#77767b"/>
        <stop offset="0.0357143" stop-color="#c0bfbc"/>
        <stop offset="0.0713653" stop-color="#9a9996"/>
        <stop offset="0.928571" stop-color="#9a9996"/>
        <stop offset="0.964286" stop-color="#c0bfbc"/>
        <stop offset="1" stop-color="#77767b"/>
    </linearGradient>
    <clipPath id="c">
        <rect height="128" width="128"/>
    </clipPath>
    <clipPath id="d">
        <rect height="128" width="128"/>
    </clipPath>
    <mask id="e">
        <g filter="url(#a)">
            <g clip-path="url(#d)" filter="url(#a)">
                <g clip-path="url(#c)">
                    <path d="m 15.992188 39.996094 h 96 c 4.417968 0 8 3.582031 8 8 v 60 c 0 4.417968 -3.582032 8 -8 8 h -96 c -4.421876 0 -8 -3.582032 -8 -8 v -60 c 0 -4.417969 3.578124 -8 8 -8 z m 0 0" fill="url(#b)"/>
                    <path d="m 15.992188 27.960938 h 96 c 4.417968 0 8 3.582031 8 8 v 68 c 0 4.417968 -3.582032 8 -8 8 h -96 c -4.421876 0 -8 -3.582032 -8 -8 v -68 c 0 -4.417969 3.578124 -8 8 -8 z m 0 0" fill="#deddda"/>
                    <path d="m 16.410156 43.863281 l -8.40625 0.011719 l 0.054688 -8.253906 l 6.191406 2.105468 l 2.304688 5.789063 z m 0 0" fill="#9a9996"/>
                    <path d="m 15.9375 28.03125 h 96.152344 c 4.363281 0 7.902344 3.542969 7.902344 7.914062 c 0 4.375 -3.539063 7.917969 -7.902344 7.917969 h -96.152344 c -4.363281 0 -7.902344 -3.542969 -7.902344 -7.917969 c 0 -4.371093 3.539063 -7.914062 7.902344 -7.914062 z m 0 0" fill="#9a9996"/>
                    <path d="m 110.464844 43.839844 l 9.511718 0.007812 l 0.019532 -7.585937 l -7.855469 4.414062 z m 0 0" fill="#9a9996"/>
                    <path d="m 116.382812 36.945312 c 0 2.710938 -2.164062 4.929688 -4.875 5 c -2.710937 0.066407 -4.984374 -2.039062 -5.121093 -4.746093 c -0.136719 -2.710938 1.914062 -5.035157 4.617187 -5.238281 c 2.703125 -0.207032 5.078125 1.785156 5.351563 4.480468" fill="#77767b"/>
                    <path d="m 116.359375 36.105469 c 0 2.710937 -2.164063 4.929687 -4.875 5 c -2.710937 0.066406 -4.980469 -2.039063 -5.117187 -4.75 c -0.136719 -2.707031 1.910156 -5.03125 4.613281 -5.234375 c 2.707031 -0.207032 5.082031 1.78125 5.355469 4.480468" fill="#deddda"/>
                    <path d="m 104.363281 36.894531 c 0 2.714844 -2.164062 4.933594 -4.875 5 c -2.710937 0.070313 -4.980469 -2.039062 -5.117187 -4.746093 c -0.136719 -2.710938 1.910156 -5.035157 4.617187 -5.238282 c 2.703125 -0.203125 5.078125 1.785156 5.351563 4.484375" fill="#77767b"/>
                    <path d="m 104.375 36.027344 c 0 2.714844 -2.164062 4.929687 -4.875 5 c -2.710938 0.066406 -4.984375 -2.039063 -5.121094 -4.746094 c -0.136718 -2.710938 1.914063 -5.035156 4.617188 -5.238281 c 2.707031 -0.203125 5.078125 1.785156 5.351562 4.484375" fill="#deddda"/>
                    <path d="m 92.34375 36.957031 c 0 2.710938 -2.164062 4.929688 -4.875 4.996094 c -2.710938 0.070313 -4.980469 -2.039063 -5.117188 -4.746094 c -0.136718 -2.710937 1.910157 -5.03125 4.613282 -5.238281 c 2.707031 -0.203125 5.082031 1.785156 5.355468 4.484375" fill="#77767b"/>
                    <path d="m 92.378906 36.070312 c 0 2.710938 -2.164062 4.929688 -4.875 5 c -2.710937 0.066407 -4.980468 -2.039062 -5.117187 -4.75 c -0.136719 -2.707031 1.910156 -5.03125 4.613281 -5.234374 c 2.707031 -0.207032 5.082031 1.78125 5.355469 4.480468" fill="#deddda"/>
                    <path d="m 31.714844 57.730469 l 0.054687 -0.027344 c 2.105469 -0.953125 4.457031 -0.324219 5.257813 1.40625 l 16.050781 34.816406 c 0.800781 1.730469 -0.261719 3.90625 -2.367187 4.859375 l -0.050782 0.023438 c -2.105468 0.957031 -4.460937 0.324218 -5.257812 -1.40625 l -16.054688 -34.8125 c -0.796875 -1.730469 0.261719 -3.90625 2.367188 -4.859375 z m 0 0" fill="#77767b"/>
                    <path d="m 20.226562 69.847656 l 0.023438 -0.054687 c 0.902344 -2.113281 3.066406 -3.226563 4.832031 -2.484375 l 35.5625 14.914062 c 1.765625 0.742188 2.46875 3.054688 1.566407 5.167969 l -0.023438 0.054687 c -0.902344 2.113282 -3.066406 3.226563 -4.832031 2.484376 l -35.5625 -14.914063 c -1.765625 -0.742187 -2.46875 -3.054687 -1.566407 -5.167969 z m 0 0" fill="#77767b"/>
                    <path d="m 19.867188 86.921875 l -0.023438 -0.054687 c -0.828125 -2.167969 -0.03125 -4.476563 1.777344 -5.160157 l 36.410156 -13.714843 c 1.8125 -0.679688 3.949219 0.523437 4.777344 2.691406 l 0.023437 0.054687 c 0.828125 2.164063 0.03125 4.472657 -1.777343 5.15625 l -36.410157 13.714844 c -1.8125 0.683594 -3.949219 -0.523437 -4.777343 -2.6875 z m 0 0" fill="#77767b"/>
                    <path d="m 50.726562 57.847656 l 0.050782 0.023438 c 2.097656 0.96875 3.144531 3.152344 2.332031 4.878906 l -16.296875 34.703125 c -0.808594 1.726563 -3.167969 2.335937 -5.265625 1.371094 l -0.050781 -0.027344 c -2.101563 -0.96875 -3.144532 -3.152344 -2.335938 -4.875 l 16.296875 -34.703125 c 0.8125 -1.726562 3.167969 -2.339844 5.269531 -1.371094 z m 0 0" fill="#77767b"/>
                    <path d="m 60.574219 78.527344 c 0 10.328125 -8.308594 18.777344 -18.726563 19.039062 c -10.417968 0.257813 -19.144531 -7.765625 -19.671875 -18.082031 c -0.523437 -10.320313 7.347657 -19.171875 17.738281 -19.949219 c 10.390626 -0.78125 19.515626 6.796875 20.5625 17.078125" fill="#77767b"/>
                    <path d="m 50.648438 78.597656 c 0 5.164063 -4.035157 9.386719 -9.09375 9.519532 c -5.058594 0.128906 -9.296876 -3.882813 -9.554688 -9.039063 c -0.253906 -5.160156 3.570312 -9.585937 8.617188 -9.972656 c 5.046874 -0.390625 9.476562 3.398437 9.984374 8.535156" fill="#77767b"/>
                    <path d="m 31.5625 55.710938 l 0.054688 -0.027344 c 2.105468 -0.953125 4.457031 -0.324219 5.253906 1.40625 l 16.054687 34.816406 c 0.796875 1.730469 -0.261719 3.90625 -2.367187 4.859375 l -0.050782 0.023437 c -2.105468 0.957032 -4.460937 0.324219 -5.257812 -1.40625 l -16.054688 -34.8125 c -0.796874 -1.730468 0.261719 -3.90625 2.367188 -4.859374 z m 0 0" fill="#9a9996"/>
                    <path d="m 20.074219 67.828125 l 0.023437 -0.054687 c 0.902344 -2.113282 3.066406 -3.226563 4.832032 -2.484376 l 35.5625 14.914063 c 1.765624 0.742187 2.46875 3.054687 1.566406 5.167969 l -0.023438 0.054687 c -0.902344 2.113281 -3.066406 3.226563 -4.832031 2.484375 l -35.5625 -14.914062 c -1.765625 -0.742188 -2.46875 -3.054688 -1.566406 -5.167969 z m 0 0" fill="#9a9996"/>
                    <path d="m 19.710938 84.902344 l -0.019532 -0.054688 c -0.828125 -2.167968 -0.03125 -4.476562 1.777344 -5.160156 l 36.410156 -13.714844 c 1.8125 -0.679687 3.949219 0.523438 4.777344 2.6875 l 0.023438 0.058594 c 0.828124 2.164062 0.03125 4.472656 -1.777344 5.15625 l -36.414063 13.714844 c -1.808593 0.683594 -3.945312 -0.523438 -4.777343 -2.6875 z m 0 0" fill="#9a9996"/>
                    <path d="m 50.570312 55.828125 l 0.054688 0.023437 c 2.097656 0.96875 3.144531 3.152344 2.332031 4.878907 l -16.296875 34.703125 c -0.808594 1.722656 -3.167968 2.335937 -5.265625 1.367187 l -0.054687 -0.023437 c -2.097656 -0.96875 -3.140625 -3.152344 -2.332032 -4.875 l 16.296876 -34.703125 c 0.8125 -1.726563 3.167968 -2.339844 5.265624 -1.371094 z m 0 0" fill="#9a9996"/>
                    <path d="m 60.417969 76.507812 c 0 10.328126 -8.308594 18.777344 -18.726563 19.039063 c -10.414062 0.257813 -19.140625 -7.765625 -19.667968 -18.082031 c -0.523438 -10.320313 7.347656 -19.171875 17.738281 -19.949219 c 10.390625 -0.78125 19.511719 6.796875 20.558593 17.078125" fill="#9a9996"/>
                    <path d="m 50.496094 76.578125 c 0 5.164063 -4.035156 9.386719 -9.09375 9.519531 c -5.0625 0.128906 -9.300782 -3.882812 -9.554688 -9.039062 c -0.253906 -5.160156 3.570313 -9.585938 8.613282 -9.972656 c 5.046874 -0.390626 9.480468 3.398437 9.988281 8.535156" fill="#77767b"/>
                    <path d="m 50.53125 77.957031 c 0 5.167969 -4.035156 9.390625 -9.09375 9.519531 c -5.058594 0.128907 -9.296875 -3.878906 -9.554688 -9.039062 c -0.253906 -5.15625 3.570313 -9.582031 8.617188 -9.972656 s 9.476562 3.398437 9.984375 8.539062" fill="#deddda"/>
                    <path d="m 82.292969 55.234375 h 19.660156 c 4.417969 0 8 3.449219 8 7.703125 v 0.679688 c 0 4.253906 -3.582031 7.703124 -8 7.703124 h -19.660156 c -4.417969 0 -8 -3.449218 -8 -7.703124 v -0.679688 c 0 -4.253906 3.582031 -7.703125 8 -7.703125 z m 0 0" fill="#1a5fb4"/>
                    <path d="m 82.296875 56.308594 h 19.660156 c 4.417969 0 8 3.449218 8 7.703125 v 0.679687 c 0 4.257813 -3.582031 7.707032 -8 7.707032 h -19.660156 c -4.417969 0 -8 -3.449219 -8 -7.707032 v -0.679687 c 0 -4.253907 3.582031 -7.703125 8 -7.703125 z m 0 0" fill="#3584e4"/>
                    <path d="m 110.054688 64.457031 c 0 4.417969 -3.582032 8 -8 8 c -4.417969 0 -8 -3.582031 -8 -8 s 3.582031 -8 8 -8 c 4.417968 0 8 3.582031 8 8 z m 0 0" fill="#c0bfbc"/>
                    <path d="m 94.0625 61.605469 h 15.980469 v 2.769531 h -15.980469 z m 0 0" fill="#c0bfbc"/>
                    <path d="m 110.050781 63.175781 c 0 4.417969 -3.582031 8 -8 8 s -8 -3.582031 -8 -8 s 3.582031 -8 8 -8 s 8 3.582031 8 8 z m 0 0" fill="#f6f5f4"/>
                    <path d="m 81.859375 81.074219 h 19.660156 c 4.417969 0 8 3.449219 8 7.703125 v 0.679687 c 0 4.253907 -3.582031 7.707031 -8 7.707031 h -19.660156 c -4.417969 0 -8 -3.453124 -8 -7.707031 v -0.679687 c 0 -4.253906 3.582031 -7.703125 8 -7.703125 z m 0 0" fill="#9a9996"/>
                    <path d="m 81.863281 82.148438 h 19.660157 c 4.417968 0 8 3.449218 8 7.707031 v 0.679687 c 0 4.253906 -3.582032 7.703125 -8 7.703125 h -19.660157 c -4.417969 0 -8 -3.449219 -8 -7.703125 v -0.679687 c 0 -4.257813 3.582031 -7.707031 8 -7.707031 z m 0 0" fill="#c0bfbc"/>
                    <path d="m 89.621094 90.296875 c 0 4.417969 -3.582032 8 -8 8 c -4.421875 0 -8 -3.582031 -8 -8 s 3.578125 -8 8 -8 c 4.417968 0 8 3.582031 8 8 z m 0 0" fill="#9a9996"/>
                    <path d="m 73.625 87.445312 h 15.984375 v 2.769532 h -15.984375 z m 0 0" fill="#9a9996"/>
                    <path d="m 89.648438 89.070312 c 0 4.417969 -3.578126 8 -8 8 c -4.417969 0 -8 -3.582031 -8 -8 c 0 -4.417968 3.582031 -8 8 -8 c 4.421874 0 8 3.582032 8 8 z m 0 0" fill="#f6f5f4"/>
                </g>
            </g>
        </g>
    </mask>
    <mask id="f">
        <g filter="url(#a)">
            <rect fill-opacity="0.8" height="184.32" width="184.32" x="-28.16" y="-28.16"/>
        </g>
    </mask>
    <linearGradient id="g" gradientTransform="matrix(0 0.37 -0.98462 0 295.38501 -30.360001)" gradientUnits="userSpaceOnUse" x1="300" x2="428" y1="235" y2="235">
        <stop offset="0" stop-color="#f9f06b"/>
        <stop offset="1" stop-color="#f5c211"/>
    </linearGradient>
    <clipPath id="h">
        <rect height="128" width="128"/>
    </clipPath>
    <clipPath id="i">
        <rect height="128" width="128"/>
    </clipPath>
    <path d="m 15.992188 39.996094 h 96 c 4.417968 0 8 3.582031 8 8 v 60 c 0 4.417968 -3.582032 8 -8 8 h -96 c -4.421876 0 -8 -3.582032 -8 -8 v -60 c 0 -4.417969 3.578124 -8 8 -8 z m 0 0" fill="url(#b)"/>
    <path d="m 15.992188 27.960938 h 96 c 4.417968 0 8 3.582031 8 8 v 68 c 0 4.417968 -3.582032 8 -8 8 h -96 c -4.421876 0 -8 -3.582032 -8 -8 v -68 c 0 -4.417969 3.578124 -8 8 -8 z m 0 0" fill="#deddda"/>
    <path d="m 16.410156 43.863281 l -8.40625 0.011719 l 0.054688 -8.253906 l 6.191406 2.105468 l 2.304688 5.789063 z m 0 0" fill="#9a9996"/>
    <path d="m 15.9375 28.03125 h 96.152344 c 4.363281 0 7.902344 3.542969 7.902344 7.914062 c 0 4.375 -3.539063 7.917969 -7.902344 7.917969 h -96.152344 c -4.363281 0 -7.902344 -3.542969 -7.902344 -7.917969 c 0 -4.371093 3.539063 -7.914062 7.902344 -7.914062 z m 0 0" fill="#9a9996"/>
    <path d="m 110.464844 43.839844 l 9.511718 0.007812 l 0.019532 -7.585937 l -7.855469 4.414062 z m 0 0" fill="#9a9996"/>
    <path d="m 116.382812 36.945312 c 0 2.710938 -2.164062 4.929688 -4.875 5 c -2.710937 0.066407 -4.984374 -2.039062 -5.121093 -4.746093 c -0.136719 -2.710938 1.914062 -5.035157 4.617187 -5.238281 c 2.703125 -0.207032 5.078125 1.785156 5.351563 4.480468" fill="#77767b"/>
    <path d="m 116.359375 36.105469 c 0 2.710937 -2.164063 4.929687 -4.875 5 c -2.710937 0.066406 -4.980469 -2.039063 -5.117187 -4.75 c -0.136719 -2.707031 1.910156 -5.03125 4.613281 -5.234375 c 2.707031 -0.207032 5.082031 1.78125 5.355469 4.480468" fill="#deddda"/>
    <path d="m 104.363281 36.894531 c 0 2.714844 -2.164062 4.933594 -4.875 5 c -2.710937 0.070313 -4.980469 -2.039062 -5.117187 -4.746093 c -0.136719 -2.710938 1.910156 -5.035157 4.617187 -5.238282 c 2.703125 -0.203125 5.078125 1.785156 5.351563 4.484375" fill="#77767b"/>
    <path d="m 104.375 36.027344 c 0 2.714844 -2.164062 4.929687 -4.875 5 c -2.710938 0.066406 -4.984375 -2.039063 -5.121094 -4.746094 c -0.136718 -2.710938 1.914063 -5.035156 4.617188 -5.238281 c 2.707031 -0.203125 5.078125 1.785156 5.351562 4.484375" fill="#deddda"/>
    <path d="m 92.34375 36.957031 c 0 2.710938 -2.164062 4.929688 -4.875 4.996094 c -2.710938 0.070313 -4.980469 -2.039063 -5.117188 -4.746094 c -0.136718 -2.710937 1.910157 -5.03125 4.613282 -5.238281 c 2.707031 -0.203125 5.082031 1.785156 5.355468 4.484375" fill="#77767b"/>
    <path d="m 92.378906 36.070312 c 0 2.710938 -2.164062 4.929688 -4.875 5 c -2.710937 0.066407 -4.980468 -2.039062 -5.117187 -4.75 c -0.136719 -2.707031 1.910156 -5.03125 4.613281 -5.234374 c 2.707031 -0.207032 5.082031 1.78125 5.355469 4.480468" fill="#deddda"/>
    <g fill="#77767b">
        <path d="m 31.714844 57.730469 l 0.054687 -0.027344 c 2.105469 -0.953125 4.457031 -0.324219 5.257813 1.40625 l 16.050781 34.816406 c 0.800781 1.730469 -0.261719 3.90625 -2.367187 4.859375 l -0.050782 0.023438 c -2.105468 0.957031 -4.460937 0.324218 -5.257812 -1.40625 l -16.054688 -34.8125 c -0.796875 -1.730469 0.261719 -3.90625 2.367188 -4.859375 z m 0 0"/>
        <path d="m 20.226562 69.847656 l 0.023438 -0.054687 c 0.902344 -2.113281 3.066406 -3.226563 4.832031 -2.484375 l 35.5625 14.914062 c 1.765625 0.742188 2.46875 3.054688 1.566407 5.167969 l -0.023438 0.054687 c -0.902344 2.113282 -3.066406 3.226563 -4.832031 2.484376 l -35.5625 -14.914063 c -1.765625 -0.742187 -2.46875 -3.054687 -1.566407 -5.167969 z m 0 0"/>
        <path d="m 19.867188 86.921875 l -0.023438 -0.054687 c -0.828125 -2.167969 -0.03125 -4.476563 1.777344 -5.160157 l 36.410156 -13.714843 c 1.8125 -0.679688 3.949219 0.523437 4.777344 2.691406 l 0.023437 0.054687 c 0.828125 2.164063 0.03125 4.472657 -1.777343 5.15625 l -36.410157 13.714844 c -1.8125 0.683594 -3.949219 -0.523437 -4.777343 -2.6875 z m 0 0"/>
        <path d="m 50.726562 57.847656 l 0.050782 0.023438 c 2.097656 0.96875 3.144531 3.152344 2.332031 4.878906 l -16.296875 34.703125 c -0.808594 1.726563 -3.167969 2.335937 -5.265625 1.371094 l -0.050781 -0.027344 c -2.101563 -0.96875 -3.144532 -3.152344 -2.335938 -4.875 l 16.296875 -34.703125 c 0.8125 -1.726562 3.167969 -2.339844 5.269531 -1.371094 z m 0 0"/>
        <path d="m 60.574219 78.527344 c 0 10.328125 -8.308594 18.777344 -18.726563 19.039062 c -10.417968 0.257813 -19.144531 -7.765625 -19.671875 -18.082031 c -0.523437 -10.320313 7.347657 -19.171875 17.738281 -19.949219 c 10.390626 -0.78125 19.515626 6.796875 20.5625 17.078125"/>
        <path d="m 50.648438 78.597656 c 0 5.164063 -4.035157 9.386719 -9.09375 9.519532 c -5.058594 0.128906 -9.296876 -3.882813 -9.554688 -9.039063 c -0.253906 -5.160156 3.570312 -9.585937 8.617188 -9.972656 c 5.046874 -0.390625 9.476562 3.398437 9.984374 8.535156"/>
    </g>
    <path d="m 31.5625 55.710938 l 0.054688 -0.027344 c 2.105468 -0.953125 4.457031 -0.324219 5.253906 1.40625 l 16.054687 34.816406 c 0.796875 1.730469 -0.261719 3.90625 -2.367187 4.859375 l -0.050782 0.023437 c -2.105468 0.957032 -4.460937 0.324219 -5.257812 -1.40625 l -16.054688 -34.8125 c -0.796874 -1.730468 0.261719 -3.90625 2.367188 -4.859374 z m 0 0" fill="#9a9996"/>
    <path d="m 20.074219 67.828125 l 0.023437 -0.054687 c 0.902344 -2.113282 3.066406 -3.226563 4.832032 -2.484376 l 35.5625 14.914063 c 1.765624 0.742187 2.46875 3.054687 1.566406 5.167969 l -0.023438 0.054687 c -0.902344 2.113281 -3.066406 3.226563 -4.832031 2.484375 l -35.5625 -14.914062 c -1.765625 -0.742188 -2.46875 -3.054688 -1.566406 -5.167969 z m 0 0" fill="#9a9996"/>
    <path d="m 19.710938 84.902344 l -0.019532 -0.054688 c -0.828125 -2.167968 -0.03125 -4.476562 1.777344 -5.160156 l 36.410156 -13.714844 c 1.8125 -0.679687 3.949219 0.523438 4.777344 2.6875 l 0.023438 0.058594 c 0.828124 2.164062 0.03125 4.472656 -1.777344 5.15625 l -36.414063 13.714844 c -1.808593 0.683594 -3.945312 -0.523438 -4.777343 -2.6875 z m 0 0" fill="#9a9996"/>
    <path d="m 50.570312 55.828125 l 0.054688 0.023437 c 2.097656 0.96875 3.144531 3.152344 2.332031 4.878907 l -16.296875 34.703125 c -0.808594 1.722656 -3.167968 2.335937 -5.265625 1.367187 l -0.054687 -0.023437 c -2.097656 -0.96875 -3.140625 -3.152344 -2.332032 -4.875 l 16.296876 -34.703125 c 0.8125 -1.726563 3.167968 -2.339844 5.265624 -1.371094 z m 0 0" fill="#9a9996"/>
    <path d="m 60.417969 76.507812 c 0 10.328126 -8.308594 18.777344 -18.726563 19.039063 c -10.414062 0.257813 -19.140625 -7.765625 -19.667968 -18.082031 c -0.523438 -10.320313 7.347656 -19.171875 17.738281 -19.949219 c 10.390625 -0.78125 19.511719 6.796875 20.558593 17.078125" fill="#9a9996"/>
    <path d="m 50.496094 76.578125 c 0 5.164063 -4.035156 9.386719 -9.09375 9.519531 c -5.0625 0.128906 -9.300782 -3.882812 -9.554688 -9.039062 c -0.253906 -5.160156 3.570313 -9.585938 8.613282 -9.972656 c 5.046874 -0.390626 9.480468 3.398437 9.988281 8.535156" fill="#77767b"/>
    <path d="m 50.53125 77.957031 c 0 5.167969 -4.035156 9.390625 -9.09375 9.519531 c -5.058594 0.128907 -9.296875 -3.878906 -9.554688 -9.039062 c -0.253906 -5.15625 3.570313 -9.582031 8.617188 -9.972656 s 9.476562 3.398437 9.984375 8.539062" fill="#deddda"/>
    <path d="m 82.292969 55.234375 h 19.660156 c 4.417969 0 8 3.449219 8 7.703125 v 0.679688 c 0 4.253906 -3.582031 7.703124 -8 7.703124 h -19.660156 c -4.417969 0 -8 -3.449218 -8 -7.703124 v -0.679688 c 0 -4.253906 3.582031 -7.703125 8 -7.703125 z m 0 0" fill="#1a5fb4"/>
    <path d="m 82.296875 56.308594 h 19.660156 c 4.417969 0 8 3.449218 8 7.703125 v 0.679687 c 0 4.257813 -3.582031 7.707032 -8 7.707032 h -19.660156 c -4.417969 0 -8 -3.449219 -8 -7.707032 v -0.679687 c 0 -4.253907 3.582031 -7.703125 8 -7.703125 z m 0 0" fill="#3584e4"/>
    <path d="m 110.054688 64.457031 c 0 4.417969 -3.582032 8 -8 8 c -4.417969 0 -8 -3.582031 -8 -8 s 3.582031 -8 8 -8 c 4.417968 0 8 3.582031 8 8 z m 0 0" fill="#c0bfbc"/>
    <path d="m 94.0625 61.605469 h 15.980469 v 2.769531 h -15.980469 z m 0 0" fill="#c0bfbc"/>
    <path d="m 110.050781 63.175781 c 0 4.417969 -3.582031 8 -8 8 s -8 -3.582031 -8 -8 s 3.582031 -8 8 -8 s 8 3.582031 8 8 z m 0 0" fill="#f6f5f4"/>
    <path d="m 81.859375 81.074219 h 19.660156 c 4.417969 0 8 3.449219 8 7.703125 v 0.679687 c 0 4.253907 -3.582031 7.707031 -8 7.707031 h -19.660156 c -4.417969 0 -8 -3.453124 -8 -7.707031 v -0.679687 c 0 -4.253906 3.582031 -7.703125 8 -7.703125 z m 0 0" fill="#9a9996"/>
    <path d="m 81.863281 82.148438 h 19.660157 c 4.417968 0 8 3.449218 8 7.707031 v 0.679687 c 0 4.253906 -3.582032 7.703125 -8 7.703125 h -19.660157 c -4.417969 0 -8 -3.449219 -8 -7.703125 v -0.679687 c 0 -4.257813 3.582031 -7.707031 8 -7.707031 z m 0 0" fill="#c0bfbc"/>
    <path d="m 89.621094 90.296875 c 0 4.417969 -3.582032 8 -8 8 c -4.421875 0 -8 -3.582031 -8 -8 s 3.578125 -8 8 -8 c 4.417968 0 8 3.582031 8 8 z m 0 0" fill="#9a9996"/>
    <path d="m 73.625 87.445312 h 15.984375 v 2.769532 h -15.984375 z m 0 0" fill="#9a9996"/>
    <path d="m 89.648438 89.070312 c 0 4.417969 -3.578126 8 -8 8 c -4.417969 0 -8 -3.582031 -8 -8 c 0 -4.417968 3.582031 -8 8 -8 c 4.421874 0 8 3.582032 8 8 z m 0 0" fill="#f6f5f4"/>
    <g mask="url(#e)">
        <g clip-path="url(#i)">
            <g mask="url(#f)">
                <g clip-path="url(#h)">
                    <path d="m 128 80.640625 v 47.359375 h -128 v -47.359375 z m 0 0" fill="url(#g)"/>
                    <path d="m 13.308594 80.640625 l 47.355468 47.359375 h 21.214844 l -47.359375 -47.359375 z m 42.421875 0 l 47.363281 47.359375 h 21.214844 l -47.363282 -47.359375 z m 42.429687 0 l 29.839844 29.839844 v -21.210938 l -8.628906 -8.628906 z m -98.160156 7.90625 v 21.214844 l 18.238281 18.238281 h 21.214844 z m 0 0"/>
                </g>
            </g>
        </g>
    </g>
</svg>
